# MagicaVoxel @ ephtracy

# material
mtllib Dude 1.mtl

# normals
vn -1 0 0
vn 1 0 0
vn 0 0 1
vn 0 0 -1
vn 0 -1 0
vn 0 1 0

# texcoords
vt 0.396484 0.5
vt 0.560547 0.5
vt 0.677734 0.5
vt 0.701172 0.5
vt 0.869141 0.5
vt 0.955078 0.5
vt 0.978516 0.5
vt 0.982422 0.5
vt 0.986328 0.5
vt 0.994141 0.5

# verts
v -5 0 -12
v -5 1 -12
v -5 1 -13
v -5 0 -13
v -3 0 -12
v -3 1 -12
v -3 1 -13
v -3 0 -13
v -3 2 -12
v -3 3 -12
v -3 3 -13
v -3 2 -13
v -6 9 -12
v -6 10 -12
v -6 10 -13
v -6 9 -13
v -6 3 -12
v -6 4 -12
v -6 4 -13
v -6 3 -13
v -6 5 -12
v -6 5 -13
v -5 10 -12
v -5 11 -12
v -5 11 -13
v -5 10 -13
v -6 6 -12
v -6 7 -12
v -6 7 -13
v -6 6 -13
v -5 8 -13
v -5 9 -13
v -5 9 -14
v -5 8 -14
v -6 8 -12
v -6 8 -13
v -5 7 -13
v -5 7 -14
v -5 10 -14
v -5 2 -12
v -5 2 -13
v -5 3 -12
v -5 3 -13
v -5 0 -11
v -5 1 -11
v -3 0 -11
v -3 1 -11
v -4 7 -11
v -4 8 -11
v -4 8 -12
v -4 7 -12
v -4 0 -12
v -4 0 -13
v -4 1 -13
v -4 1 -12
v -2 0 -12
v -2 0 -13
v -2 1 -13
v -2 1 -12
v -2 9 -13
v -2 9 -14
v -2 10 -14
v -2 10 -13
v -2 8 -13
v -2 8 -14
v -2 2 -12
v -2 2 -13
v -2 3 -13
v -2 3 -12
v -1 4 -12
v -1 4 -13
v -1 5 -13
v -1 5 -12
v -1 3 -12
v -1 3 -13
v -2 10 -12
v -2 11 -13
v -2 11 -12
v -1 8 -12
v -1 8 -13
v -1 9 -13
v -1 9 -12
v -1 10 -13
v -1 10 -12
v -2 7 -13
v -2 7 -14
v -1 7 -12
v -1 7 -13
v -1 6 -13
v -1 6 -12
v -4 2 -13
v -4 2 -12
v -4 3 -13
v -4 3 -12
v -4 0 -11
v -4 1 -11
v -2 0 -11
v -2 1 -11
v -3 7 -11
v -3 7 -12
v -3 8 -12
v -3 8 -11
v -2 4 -12
v -2 5 -12
v -4 4 -12
v -5 4 -12
v -3 4 -12
v -4 5 -12
v -5 5 -12
v -3 5 -12
v -2 6 -12
v -3 6 -12
v -5 9 -12
v -5 6 -12
v -4 6 -12
v -5 7 -12
v -2 7 -12
v -2 8 -12
v -2 9 -12
v -3 9 -12
v -4 10 -12
v -4 11 -12
v -3 10 -12
v -3 11 -12
v -5 8 -12
v -4 9 -12
v -3 9 -14
v -3 10 -14
v -3 8 -14
v -2 4 -13
v -2 5 -13
v -4 8 -14
v -4 9 -14
v -5 4 -13
v -4 4 -13
v -3 4 -13
v -5 5 -13
v -4 5 -13
v -3 5 -13
v -3 6 -13
v -2 6 -13
v -5 6 -13
v -4 7 -13
v -4 6 -13
v -3 7 -13
v -4 11 -13
v -4 10 -13
v -4 7 -14
v -3 7 -14
v -3 10 -13
v -3 11 -13
v -4 10 -14

# faces

usemtl palette

f 1/6/1 2/6/1 3/6/1 4/6/1

f 5/6/1 6/6/1 7/6/1 8/6/1

f 9/3/1 10/3/1 11/3/1 12/3/1

f 13/9/1 14/9/1 15/9/1 16/9/1

f 17/1/1 18/1/1 19/1/1 20/1/1

f 18/10/1 21/10/1 22/10/1 19/10/1

f 23/9/1 24/9/1 25/9/1 26/9/1

f 27/2/1 28/2/1 29/2/1 30/2/1

f 31/8/1 32/8/1 33/8/1 34/8/1

f 28/7/1 35/7/1 36/7/1 29/7/1

f 37/7/1 31/7/1 34/7/1 38/7/1

f 35/9/1 13/9/1 16/9/1 36/9/1

f 21/10/1 27/10/1 30/10/1 22/10/1

f 32/8/1 26/8/1 39/8/1 33/8/1

f 2/3/1 40/3/1 41/3/1 3/3/1

f 40/3/1 42/3/1 43/3/1 41/3/1

f 6/3/1 9/3/1 12/3/1 7/3/1

f 44/6/1 45/6/1 2/6/1 1/6/1

f 46/6/1 47/6/1 6/6/1 5/6/1

f 48/1/1 49/1/1 50/1/1 51/1/1

f 52/6/2 53/6/2 54/6/2 55/6/2

f 56/6/2 57/6/2 58/6/2 59/6/2

f 60/8/2 61/8/2 62/8/2 63/8/2

f 64/8/2 65/8/2 61/8/2 60/8/2

f 66/3/2 67/3/2 68/3/2 69/3/2

f 70/6/2 71/6/2 72/6/2 73/6/2

f 74/1/2 75/1/2 71/1/2 70/1/2

f 76/9/2 63/9/2 77/9/2 78/9/2

f 79/9/2 80/9/2 81/9/2 82/9/2

f 82/9/2 81/9/2 83/9/2 84/9/2

f 85/7/2 86/7/2 65/7/2 64/7/2

f 87/7/2 88/7/2 80/7/2 79/7/2

f 73/6/2 72/6/2 89/6/2 90/6/2

f 90/2/2 89/2/2 88/2/2 87/2/2

f 55/3/2 54/3/2 91/3/2 92/3/2

f 92/3/2 91/3/2 93/3/2 94/3/2

f 59/3/2 58/3/2 67/3/2 66/3/2

f 95/6/2 52/6/2 55/6/2 96/6/2

f 97/6/2 56/6/2 59/6/2 98/6/2

f 99/1/2 100/1/2 101/1/2 102/1/2

f 9/3/3 66/3/3 69/3/3 10/3/3

f 103/6/3 70/6/3 73/6/3 104/6/3

f 42/2/3 94/2/3 105/2/3 106/2/3

f 69/1/3 74/1/3 70/1/3 103/1/3

f 10/2/3 69/2/3 103/2/3 107/2/3

f 106/2/3 105/2/3 108/2/3 109/2/3

f 105/2/3 107/2/3 110/2/3 108/2/3

f 110/2/3 104/2/3 111/2/3 112/2/3

f 13/9/3 113/9/3 23/9/3 14/9/3

f 17/1/3 42/1/3 106/1/3 18/1/3

f 18/10/3 106/10/3 109/10/3 21/10/3

f 114/2/3 115/2/3 51/2/3 116/2/3

f 115/2/3 112/2/3 100/2/3 51/2/3

f 112/2/3 111/2/3 117/2/3 100/2/3

f 101/5/3 118/5/3 119/5/3 120/5/3

f 23/9/3 121/9/3 122/9/3 24/9/3

f 123/9/3 76/9/3 78/9/3 124/9/3

f 125/5/3 50/5/3 126/5/3 113/5/3

f 118/9/3 79/9/3 82/9/3 119/9/3

f 119/9/3 82/9/3 84/9/3 76/9/3

f 121/9/3 123/9/3 124/9/3 122/9/3

f 116/1/3 51/1/3 50/1/3 125/1/3

f 27/2/3 114/2/3 116/2/3 28/2/3

f 50/1/3 101/1/3 120/1/3 126/1/3

f 113/1/3 126/1/3 121/1/3 23/1/3

f 126/1/3 120/1/3 123/1/3 121/1/3

f 120/1/3 119/1/3 76/1/3 123/1/3

f 28/7/3 116/7/3 125/7/3 35/7/3

f 117/7/3 87/7/3 79/7/3 118/7/3

f 35/9/3 125/9/3 113/9/3 13/9/3

f 109/2/3 108/2/3 115/2/3 114/2/3

f 21/10/3 109/10/3 114/10/3 27/10/3

f 107/2/3 103/2/3 104/2/3 110/2/3

f 104/6/3 73/6/3 90/6/3 111/6/3

f 94/2/3 10/2/3 107/2/3 105/2/3

f 111/2/3 90/2/3 87/2/3 117/2/3

f 100/1/3 117/1/3 118/1/3 101/1/3

f 2/3/3 55/3/3 92/3/3 40/3/3

f 40/3/3 92/3/3 94/3/3 42/3/3

f 6/3/3 59/3/3 66/3/3 9/3/3

f 108/4/3 110/4/3 112/4/3 115/4/3

f 44/6/3 95/6/3 96/6/3 45/6/3

f 46/6/3 97/6/3 98/6/3 47/6/3

f 48/1/3 99/1/3 102/1/3 49/1/3

f 4/6/4 3/6/4 54/6/4 53/6/4

f 8/6/4 7/6/4 58/6/4 57/6/4

f 127/8/4 128/8/4 62/8/4 61/8/4

f 129/8/4 127/8/4 61/8/4 65/8/4

f 12/3/4 11/3/4 68/3/4 67/3/4

f 130/6/4 131/6/4 72/6/4 71/6/4

f 132/8/4 133/8/4 127/8/4 129/8/4

f 43/2/4 134/2/4 135/2/4 93/2/4

f 68/1/4 130/1/4 71/1/4 75/1/4

f 11/2/4 136/2/4 130/2/4 68/2/4

f 134/2/4 137/2/4 138/2/4 135/2/4

f 135/2/4 138/2/4 139/2/4 136/2/4

f 139/2/4 140/2/4 141/2/4 131/2/4

f 16/9/4 15/9/4 26/9/4 32/9/4

f 20/1/4 19/1/4 134/1/4 43/1/4

f 19/10/4 22/10/4 137/10/4 134/10/4

f 142/2/4 37/2/4 143/2/4 144/2/4

f 144/2/4 143/2/4 145/2/4 140/2/4

f 140/2/4 145/2/4 85/2/4 141/2/4

f 26/9/4 25/9/4 146/9/4 147/9/4

f 148/7/4 132/7/4 129/7/4 149/7/4

f 150/9/4 151/9/4 77/9/4 63/9/4

f 64/9/4 60/9/4 81/9/4 80/9/4

f 60/9/4 63/9/4 83/9/4 81/9/4

f 147/9/4 146/9/4 151/9/4 150/9/4

f 30/2/4 29/2/4 37/2/4 142/2/4

f 149/7/4 129/7/4 65/7/4 86/7/4

f 34/8/4 33/8/4 133/8/4 132/8/4

f 29/7/4 36/7/4 31/7/4 37/7/4

f 85/7/4 64/7/4 80/7/4 88/7/4

f 38/7/4 34/7/4 132/7/4 148/7/4

f 36/9/4 16/9/4 32/9/4 31/9/4

f 137/2/4 142/2/4 144/2/4 138/2/4

f 22/10/4 30/10/4 142/10/4 137/10/4

f 136/2/4 139/2/4 131/2/4 130/2/4

f 131/6/4 141/6/4 89/6/4 72/6/4

f 93/2/4 135/2/4 136/2/4 11/2/4

f 141/2/4 85/2/4 88/2/4 89/2/4

f 33/8/4 39/8/4 152/8/4 133/8/4

f 133/8/4 152/8/4 128/8/4 127/8/4

f 3/3/4 41/3/4 91/3/4 54/3/4

f 41/3/4 43/3/4 93/3/4 91/3/4

f 7/3/4 12/3/4 67/3/4 58/3/4

f 138/4/4 144/4/4 140/4/4 139/4/4

f 1/6/5 4/6/5 53/6/5 52/6/5

f 5/6/5 8/6/5 57/6/5 56/6/5

f 69/1/5 68/1/5 75/1/5 74/1/5

f 17/1/5 20/1/5 43/1/5 42/1/5

f 143/7/5 148/7/5 149/7/5 145/7/5

f 145/7/5 149/7/5 86/7/5 85/7/5

f 37/7/5 38/7/5 148/7/5 143/7/5

f 94/2/5 93/2/5 11/2/5 10/2/5

f 44/6/5 1/6/5 52/6/5 95/6/5

f 46/6/5 5/6/5 56/6/5 97/6/5

f 48/1/5 51/1/5 100/1/5 99/1/5

f 150/8/6 63/8/6 62/8/6 128/8/6

f 14/9/6 23/9/6 26/9/6 15/9/6

f 24/9/6 122/9/6 146/9/6 25/9/6

f 124/9/6 78/9/6 77/9/6 151/9/6

f 76/9/6 84/9/6 83/9/6 63/9/6

f 122/9/6 124/9/6 151/9/6 146/9/6

f 26/8/6 147/8/6 152/8/6 39/8/6

f 147/8/6 150/8/6 128/8/6 152/8/6

f 45/6/6 96/6/6 55/6/6 2/6/6

f 47/6/6 98/6/6 59/6/6 6/6/6

f 49/1/6 102/1/6 101/1/6 50/1/6

# numNormals 6
# numTexCoords 10
# numVerts 152
# numFaces 150
