# MagicaVoxel @ ephtracy

# material
mtllib Dudette.mtl

# normals
vn -1 0 0
vn 1 0 0
vn 0 0 1
vn 0 0 -1
vn 0 -1 0
vn 0 1 0

# texcoords
vt 0.0839844 0.5
vt 0.416016 0.5
vt 0.513672 0.5
vt 0.529297 0.5
vt 0.763672 0.5
vt 0.822266 0.5

# verts
v 5 5 -12
v 5 6 -12
v 5 6 -13
v 5 5 -13
v 5 4 -12
v 5 4 -13
v 6 0 -12
v 6 1 -12
v 6 1 -13
v 6 0 -13
v 8 0 -12
v 8 1 -12
v 8 1 -13
v 8 0 -13
v 6 0 -11
v 6 1 -11
v 8 0 -11
v 8 1 -11
v 6 7 -13
v 6 8 -13
v 6 8 -14
v 6 7 -14
v 6 9 -13
v 6 10 -13
v 6 10 -14
v 6 9 -14
v 6 6 -13
v 6 6 -14
v 5 9 -12
v 5 10 -12
v 5 10 -13
v 5 9 -13
v 5 7 -12
v 5 8 -12
v 5 8 -13
v 5 7 -13
v 6 2 -12
v 6 2 -13
v 8 2 -12
v 8 2 -13
v 6 10 -12
v 6 11 -12
v 6 11 -13
v 6 9 -11
v 6 10 -11
v 6 9 -12
v 6 3 -12
v 6 3 -13
v 6 4 -12
v 6 4 -13
v 9 3 -12
v 9 3 -13
v 9 4 -13
v 9 4 -12
v 10 4 -12
v 10 4 -13
v 10 5 -13
v 10 5 -12
v 10 6 -13
v 10 6 -12
v 7 0 -12
v 7 0 -13
v 7 1 -13
v 7 1 -12
v 9 0 -12
v 9 0 -13
v 9 1 -13
v 9 1 -12
v 7 0 -11
v 7 1 -11
v 9 0 -11
v 9 1 -11
v 10 9 -12
v 10 9 -13
v 10 10 -13
v 10 10 -12
v 7 2 -13
v 7 2 -12
v 9 2 -13
v 9 2 -12
v 9 6 -13
v 9 6 -14
v 9 7 -14
v 9 7 -13
v 10 7 -13
v 10 7 -12
v 9 10 -12
v 9 10 -13
v 9 11 -13
v 9 11 -12
v 9 9 -11
v 9 9 -12
v 9 10 -11
v 10 8 -12
v 10 8 -13
v 9 9 -13
v 9 9 -14
v 9 10 -14
v 9 8 -13
v 9 8 -14
v 8 3 -12
v 8 4 -12
v 9 5 -12
v 6 5 -12
v 6 6 -12
v 9 6 -12
v 7 3 -12
v 7 4 -12
v 8 6 -12
v 9 7 -12
v 8 7 -12
v 7 5 -12
v 8 5 -12
v 7 6 -12
v 7 7 -12
v 8 8 -12
v 7 8 -12
v 8 9 -12
v 7 9 -12
v 6 7 -12
v 6 8 -12
v 9 8 -12
v 7 10 -12
v 7 11 -12
v 7 9 -11
v 7 10 -11
v 8 10 -12
v 8 11 -12
v 8 9 -11
v 8 10 -11
v 8 3 -13
v 8 4 -13
v 9 5 -13
v 6 5 -13
v 7 3 -13
v 7 4 -13
v 7 8 -14
v 7 9 -14
v 8 9 -14
v 8 8 -14
v 7 7 -14
v 8 7 -14
v 7 10 -14
v 8 10 -14
v 7 5 -13
v 7 6 -13
v 8 6 -13
v 8 5 -13
v 7 6 -14
v 8 6 -14
v 7 11 -13
v 7 10 -13
v 8 11 -13
v 8 10 -13

# faces

usemtl palette

f 1/5/1 2/5/1 3/5/1 4/5/1

f 5/1/1 1/1/1 4/1/1 6/1/1

f 7/4/1 8/4/1 9/4/1 10/4/1

f 11/4/1 12/4/1 13/4/1 14/4/1

f 15/4/1 16/4/1 8/4/1 7/4/1

f 17/4/1 18/4/1 12/4/1 11/4/1

f 19/2/1 20/2/1 21/2/1 22/2/1

f 23/2/1 24/2/1 25/2/1 26/2/1

f 27/2/1 19/2/1 22/2/1 28/2/1

f 29/2/1 30/2/1 31/2/1 32/2/1

f 20/2/1 23/2/1 26/2/1 21/2/1

f 33/2/1 34/2/1 35/2/1 36/2/1

f 8/1/1 37/1/1 38/1/1 9/1/1

f 12/1/1 39/1/1 40/1/1 13/1/1

f 2/2/1 33/2/1 36/2/1 3/2/1

f 34/2/1 29/2/1 32/2/1 35/2/1

f 41/2/1 42/2/1 43/2/1 24/2/1

f 44/2/1 45/2/1 41/2/1 46/2/1

f 37/3/1 47/3/1 48/3/1 38/3/1

f 47/3/1 49/3/1 50/3/1 48/3/1

f 51/3/2 52/3/2 53/3/2 54/3/2

f 55/1/2 56/1/2 57/1/2 58/1/2

f 58/5/2 57/5/2 59/5/2 60/5/2

f 61/4/2 62/4/2 63/4/2 64/4/2

f 65/4/2 66/4/2 67/4/2 68/4/2

f 69/4/2 61/4/2 64/4/2 70/4/2

f 71/4/2 65/4/2 68/4/2 72/4/2

f 73/2/2 74/2/2 75/2/2 76/2/2

f 64/1/2 63/1/2 77/1/2 78/1/2

f 68/1/2 67/1/2 79/1/2 80/1/2

f 81/2/2 82/2/2 83/2/2 84/2/2

f 60/2/2 59/2/2 85/2/2 86/2/2

f 87/2/2 88/2/2 89/2/2 90/2/2

f 91/2/2 92/2/2 87/2/2 93/2/2

f 94/2/2 95/2/2 74/2/2 73/2/2

f 86/2/2 85/2/2 95/2/2 94/2/2

f 96/2/2 97/2/2 98/2/2 88/2/2

f 99/2/2 100/2/2 97/2/2 96/2/2

f 84/2/2 83/2/2 100/2/2 99/2/2

f 80/3/2 79/3/2 52/3/2 51/3/2

f 101/3/3 51/3/3 54/3/3 102/3/3

f 54/1/3 55/1/3 58/1/3 103/1/3

f 1/5/3 104/5/3 105/5/3 2/5/3

f 103/5/3 58/5/3 60/5/3 106/5/3

f 5/1/3 49/1/3 104/1/3 1/1/3

f 15/4/3 69/4/3 70/4/3 16/4/3

f 17/4/3 71/4/3 72/4/3 18/4/3

f 107/3/3 101/3/3 102/3/3 108/3/3

f 78/3/3 39/3/3 101/3/3 107/3/3

f 109/5/3 106/5/3 110/5/3 111/5/3

f 112/5/3 113/5/3 109/5/3 114/5/3

f 115/1/3 111/1/3 116/1/3 117/1/3

f 92/2/3 73/2/3 76/2/3 87/2/3

f 29/2/3 46/2/3 41/2/3 30/2/3

f 117/1/3 116/1/3 118/1/3 119/1/3

f 33/2/3 120/2/3 121/2/3 34/2/3

f 116/6/3 122/6/3 92/6/3 118/6/3

f 8/1/3 64/1/3 78/1/3 37/1/3

f 12/1/3 68/1/3 80/1/3 39/1/3

f 2/2/3 105/2/3 120/2/3 33/2/3

f 111/1/3 110/1/3 122/1/3 116/1/3

f 120/1/3 115/1/3 117/1/3 121/1/3

f 121/6/3 117/6/3 119/6/3 46/6/3

f 34/2/3 121/2/3 46/2/3 29/2/3

f 106/2/3 60/2/3 86/2/3 110/2/3

f 41/2/3 123/2/3 124/2/3 42/2/3

f 44/2/3 125/2/3 126/2/3 45/2/3

f 123/2/3 127/2/3 128/2/3 124/2/3

f 127/2/3 87/2/3 90/2/3 128/2/3

f 129/2/3 91/2/3 93/2/3 130/2/3

f 125/2/3 129/2/3 130/2/3 126/2/3

f 122/2/3 94/2/3 73/2/3 92/2/3

f 110/2/3 86/2/3 94/2/3 122/2/3

f 104/5/3 112/5/3 114/5/3 105/5/3

f 113/5/3 103/5/3 106/5/3 109/5/3

f 105/5/3 114/5/3 115/5/3 120/5/3

f 114/5/3 109/5/3 111/5/3 115/5/3

f 49/5/3 108/5/3 112/5/3 104/5/3

f 108/5/3 102/5/3 113/5/3 112/5/3

f 102/5/3 54/5/3 103/5/3 113/5/3

f 37/3/3 78/3/3 107/3/3 47/3/3

f 39/3/3 80/3/3 51/3/3 101/3/3

f 47/3/3 107/3/3 108/3/3 49/3/3

f 131/3/4 132/3/4 53/3/4 52/3/4

f 53/1/4 133/1/4 57/1/4 56/1/4

f 4/5/4 3/5/4 27/5/4 134/5/4

f 133/5/4 81/5/4 59/5/4 57/5/4

f 6/1/4 4/1/4 134/1/4 50/1/4

f 10/4/4 9/4/4 63/4/4 62/4/4

f 14/4/4 13/4/4 67/4/4 66/4/4

f 135/3/4 136/3/4 132/3/4 131/3/4

f 77/3/4 135/3/4 131/3/4 40/3/4

f 137/2/4 138/2/4 139/2/4 140/2/4

f 141/2/4 137/2/4 140/2/4 142/2/4

f 138/2/4 143/2/4 144/2/4 139/2/4

f 22/2/4 21/2/4 137/2/4 141/2/4

f 145/5/4 146/5/4 147/5/4 148/5/4

f 26/2/4 25/2/4 143/2/4 138/2/4

f 28/2/4 22/2/4 141/2/4 149/2/4

f 96/2/4 88/2/4 75/2/4 74/2/4

f 32/2/4 31/2/4 24/2/4 23/2/4

f 21/2/4 26/2/4 138/2/4 137/2/4

f 36/2/4 35/2/4 20/2/4 19/2/4

f 149/2/4 141/2/4 142/2/4 150/2/4

f 9/1/4 38/1/4 77/1/4 63/1/4

f 13/1/4 40/1/4 79/1/4 67/1/4

f 150/2/4 142/2/4 83/2/4 82/2/4

f 3/2/4 36/2/4 19/2/4 27/2/4

f 35/2/4 32/2/4 23/2/4 20/2/4

f 81/2/4 84/2/4 85/2/4 59/2/4

f 24/2/4 43/2/4 151/2/4 152/2/4

f 152/2/4 151/2/4 153/2/4 154/2/4

f 154/2/4 153/2/4 89/2/4 88/2/4

f 99/2/4 96/2/4 74/2/4 95/2/4

f 84/2/4 99/2/4 95/2/4 85/2/4

f 139/2/4 144/2/4 98/2/4 97/2/4

f 140/2/4 139/2/4 97/2/4 100/2/4

f 142/2/4 140/2/4 100/2/4 83/2/4

f 134/5/4 27/5/4 146/5/4 145/5/4

f 148/5/4 147/5/4 81/5/4 133/5/4

f 50/5/4 134/5/4 145/5/4 136/5/4

f 136/5/4 145/5/4 148/5/4 132/5/4

f 132/5/4 148/5/4 133/5/4 53/5/4

f 38/3/4 48/3/4 135/3/4 77/3/4

f 40/3/4 131/3/4 52/3/4 79/3/4

f 48/3/4 50/3/4 136/3/4 135/3/4

f 54/1/5 53/1/5 56/1/5 55/1/5

f 5/1/5 6/1/5 50/1/5 49/1/5

f 7/4/5 10/4/5 62/4/5 61/4/5

f 11/4/5 14/4/5 66/4/5 65/4/5

f 15/4/5 7/4/5 61/4/5 69/4/5

f 17/4/5 11/4/5 65/4/5 71/4/5

f 78/3/5 77/3/5 40/3/5 39/3/5

f 27/2/5 28/2/5 149/2/5 146/2/5

f 146/2/5 149/2/5 150/2/5 147/2/5

f 147/2/5 150/2/5 82/2/5 81/2/5

f 44/2/5 46/2/5 119/2/5 125/2/5

f 129/2/5 118/2/5 92/2/5 91/2/5

f 125/2/5 119/2/5 118/2/5 129/2/5

f 16/4/6 70/4/6 64/4/6 8/4/6

f 18/4/6 72/4/6 68/4/6 12/4/6

f 152/2/6 154/2/6 144/2/6 143/2/6

f 24/2/6 152/2/6 143/2/6 25/2/6

f 87/2/6 76/2/6 75/2/6 88/2/6

f 30/2/6 41/2/6 24/2/6 31/2/6

f 42/2/6 124/2/6 151/2/6 43/2/6

f 45/2/6 126/2/6 123/2/6 41/2/6

f 124/2/6 128/2/6 153/2/6 151/2/6

f 128/2/6 90/2/6 89/2/6 153/2/6

f 130/2/6 93/2/6 87/2/6 127/2/6

f 126/2/6 130/2/6 127/2/6 123/2/6

f 154/2/6 88/2/6 98/2/6 144/2/6

# numNormals 6
# numTexCoords 6
# numVerts 154
# numFaces 152
